<svg width="40" height="40" viewBox="0 0 40 40" fill="none" xmlns="http://www.w3.org/2000/svg">
<path d="M8.75 28.6719C10.7451 28.6719 13.4098 27.3212 16.6698 24.6575C18.0552 23.5255 19.2469 22.4036 20 21.6647C20.7531 22.4036 21.9448 23.5255 23.3302 24.6575C26.5902 27.3212 29.2549 28.6719 31.25 28.6719C36.0317 28.6719 39.9219 24.7817 39.9219 20C39.9219 15.2183 36.0317 11.3281 31.25 11.3281C29.2549 11.3281 26.5902 12.6788 23.3302 15.3425C21.9448 16.4745 20.7531 17.5964 20 18.3353C19.2469 17.5964 18.0552 16.4745 16.6698 15.3425C13.4098 12.6788 10.7451 11.3281 8.75 11.3281C3.96828 11.3281 0.078125 15.2183 0.078125 20C0.078125 24.7817 3.96828 28.6719 8.75 28.6719ZM24.8317 17.1423C28.5319 14.1227 30.4412 13.6719 31.25 13.6719C34.7393 13.6719 37.5781 16.5106 37.5781 20C37.5781 23.4894 34.7393 26.3281 31.25 26.3281C30.4412 26.3281 28.5319 25.8773 24.8317 22.8577C23.5213 21.7883 22.3735 20.7077 21.6513 20C22.3735 19.2923 23.5212 18.2117 24.8317 17.1423ZM8.75 13.6719C9.55883 13.6719 11.4681 14.1227 15.1683 17.1423C16.4787 18.2117 17.6265 19.2923 18.3487 20C17.6265 20.7077 16.4787 21.7883 15.1683 22.8577C11.4681 25.8773 9.55883 26.3281 8.75 26.3281C5.2607 26.3281 2.42188 23.4894 2.42188 20C2.42188 16.5106 5.2607 13.6719 8.75 13.6719Z" fill="black"/>
<path d="M38.8281 0H1.17188C0.524687 0 0 0.524687 0 1.17188V5.82687C0 6.47406 0.524687 6.99875 1.17188 6.99875C1.81906 6.99875 2.34375 6.47406 2.34375 5.82687V2.34375H37.6562V5.85938C37.6562 6.50656 38.1809 7.03125 38.8281 7.03125C39.4753 7.03125 40 6.50656 40 5.85938V1.17188C40 0.524687 39.4753 0 38.8281 0Z" fill="black"/>
<path d="M38.8281 32.9688C38.1809 32.9688 37.6562 33.4934 37.6562 34.1406V37.6562H2.34375V34.1731C2.34375 33.5259 1.81906 33.0012 1.17188 33.0012C0.524687 33.0012 0 33.5259 0 34.1731V38.8281C0 39.4753 0.524687 40 1.17188 40H38.8281C39.4753 40 40 39.4753 40 38.8281V34.1406C40 33.4934 39.4753 32.9688 38.8281 32.9688Z" fill="black"/>
</svg>
