<svg width="213" height="49" viewBox="0 0 213 49" fill="none" xmlns="http://www.w3.org/2000/svg">
<path d="M10.7188 35.123C13.1627 35.123 16.427 33.4685 20.4205 30.2054C22.1177 28.8187 23.5774 27.4444 24.5 26.5392C25.4226 27.4444 26.8823 28.8187 28.5795 30.2054C32.573 33.4685 35.8373 35.123 38.2812 35.123C44.1389 35.123 48.9043 30.3576 48.9043 24.5C48.9043 18.6424 44.1389 13.877 38.2812 13.877C35.8373 13.877 32.573 15.5315 28.5795 18.7946C26.8823 20.1813 25.4226 21.5556 24.5 22.4608C23.5774 21.5556 22.1177 20.1813 20.4205 18.7946C16.427 15.5315 13.1627 13.877 10.7188 13.877C4.86114 13.877 0.0957031 18.6424 0.0957031 24.5C0.0957031 30.3576 4.86114 35.123 10.7188 35.123ZM30.4189 20.9994C34.9515 17.3003 37.2904 16.748 38.2812 16.748C42.5556 16.748 46.0332 20.2255 46.0332 24.5C46.0332 28.7745 42.5556 32.252 38.2812 32.252C37.2904 32.252 34.9515 31.6996 30.4189 28.0006C28.8136 26.6906 27.4076 25.3669 26.5229 24.5C27.4076 23.633 28.8135 22.3094 30.4189 20.9994ZM10.7188 16.748C11.7096 16.748 14.0485 17.3003 18.5811 20.9994C20.1864 22.3094 21.5924 23.6331 22.4771 24.5C21.5924 25.367 20.1864 26.6906 18.5811 28.0006C14.0485 31.6996 11.7096 32.252 10.7188 32.252C6.44436 32.252 2.9668 28.7745 2.9668 24.5C2.9668 20.2255 6.44436 16.748 10.7188 16.748Z" fill="black"/>
<path d="M47.5645 0H1.43555C0.642742 0 0 0.642742 0 1.43555V7.13792C0 7.93073 0.642742 8.57347 1.43555 8.57347C2.22835 8.57347 2.87109 7.93073 2.87109 7.13792V2.87109H46.1289V7.17773C46.1289 7.97054 46.7716 8.61328 47.5645 8.61328C48.3573 8.61328 49 7.97054 49 7.17773V1.43555C49 0.642742 48.3573 0 47.5645 0Z" fill="black"/>
<path d="M47.5645 40.3867C46.7716 40.3867 46.1289 41.0295 46.1289 41.8223V46.1289H2.87109V41.8621C2.87109 41.0693 2.22835 40.4265 1.43555 40.4265C0.642742 40.4265 0 41.0693 0 41.8621V47.5645C0 48.3573 0.642742 49 1.43555 49H47.5645C48.3573 49 49 48.3573 49 47.5645V41.8223C49 41.0295 48.3573 40.3867 47.5645 40.3867Z" fill="black"/>
<path d="M65.416 20.536L71.632 31H67.696L63.76 23.272L63.592 22.696L63.304 23.224L61.792 25.168C61.648 24.64 61.584 24.096 61.6 23.536C61.616 22.976 61.68 22.432 61.792 21.904C61.92 21.36 62.088 20.848 62.296 20.368C62.52 19.888 62.776 19.456 63.064 19.072L67.024 13.552H70.792L65.416 20.536ZM56.992 31V13.552H60.424V31H56.992ZM77.5356 18.784L77.1516 17.92L77.1996 18.736V31H74.2716V13.552H77.5836L84.9516 25.288L85.2876 26.248L85.2396 25.288V13.552H88.2636V31H85.2396L77.5356 18.784ZM100.415 15.664C99.5833 15.664 98.8553 15.84 98.2313 16.192C97.6073 16.544 97.0793 17.024 96.6473 17.632C96.2313 18.24 95.9113 18.944 95.6873 19.744C95.4793 20.544 95.3753 21.384 95.3753 22.264C95.3753 23.096 95.4793 23.912 95.6873 24.712C95.9113 25.496 96.2313 26.2 96.6473 26.824C97.0793 27.432 97.6073 27.928 98.2313 28.312C98.8553 28.68 99.5833 28.864 100.415 28.864C101.071 28.864 101.703 28.72 102.311 28.432C102.919 28.128 103.455 27.696 103.919 27.136C104.383 26.576 104.751 25.888 105.023 25.072C105.311 24.256 105.455 23.32 105.455 22.264C105.455 21.32 105.335 20.448 105.095 19.648C104.871 18.832 104.543 18.136 104.111 17.56C103.679 16.968 103.151 16.504 102.527 16.168C101.903 15.832 101.199 15.664 100.415 15.664ZM100.415 31.336C99.0233 31.336 97.7913 31.104 96.7193 30.64C95.6473 30.176 94.7353 29.544 93.9833 28.744C93.2473 27.928 92.6873 26.968 92.3033 25.864C91.9193 24.76 91.7273 23.56 91.7273 22.264C91.7273 21.016 91.9193 19.84 92.3033 18.736C92.7033 17.632 93.2713 16.672 94.0073 15.856C94.7593 15.024 95.6713 14.376 96.7433 13.912C97.8153 13.432 99.0393 13.192 100.415 13.192C101.983 13.192 103.311 13.464 104.399 14.008C105.503 14.552 106.399 15.264 107.087 16.144C107.791 17.008 108.295 17.984 108.599 19.072C108.919 20.144 109.079 21.208 109.079 22.264C109.079 23.448 108.887 24.584 108.503 25.672C108.119 26.76 107.559 27.728 106.823 28.576C106.103 29.408 105.199 30.08 104.111 30.592C103.039 31.088 101.807 31.336 100.415 31.336ZM124.297 13.792L127.369 26.344L127.609 27.688L127.801 26.392L131.041 13.552H134.305L129.385 31H126.001L122.593 18.16L122.377 17.176L122.185 18.136L118.777 31H115.321L110.377 13.552H113.713L116.953 26.368L117.145 27.688L117.409 26.368L120.529 13.792H124.297ZM137.007 13.552H140.463V28.504H146.751V31H137.007V13.552ZM149.781 13.552H160.245V16.024H153.213V28.528H160.629V31H149.781V13.552ZM154.125 23.056C154.205 22.8 154.309 22.528 154.437 22.24C154.565 21.952 154.725 21.688 154.917 21.448C155.109 21.208 155.333 21.016 155.589 20.872C155.861 20.712 156.173 20.632 156.525 20.632H159.429V23.056H154.125ZM170.61 28.816C171.522 28.816 172.306 28.624 172.962 28.24C173.634 27.856 174.186 27.352 174.618 26.728C175.05 26.104 175.362 25.4 175.554 24.616C175.762 23.832 175.866 23.04 175.866 22.24C175.866 21.296 175.738 20.424 175.482 19.624C175.242 18.824 174.858 18.136 174.33 17.56C173.802 16.984 173.122 16.536 172.29 16.216C171.474 15.88 170.49 15.712 169.338 15.712C169.018 15.712 168.682 15.728 168.33 15.76C167.994 15.792 167.642 15.84 167.274 15.904V31H163.89V13.864C164.962 13.64 165.962 13.48 166.89 13.384C167.818 13.288 168.634 13.24 169.338 13.24C170.938 13.24 172.362 13.448 173.61 13.864C174.874 14.264 175.938 14.848 176.802 15.616C177.682 16.384 178.346 17.328 178.794 18.448C179.258 19.552 179.49 20.816 179.49 22.24C179.49 23.504 179.274 24.688 178.842 25.792C178.41 26.896 177.818 27.856 177.066 28.672C176.314 29.488 175.41 30.128 174.354 30.592C173.314 31.056 172.186 31.288 170.97 31.288C170.746 31.288 170.538 31.28 170.346 31.264C170.17 31.264 169.978 31.248 169.77 31.216C169.562 31.184 169.33 31.144 169.074 31.096C168.834 31.048 168.538 30.976 168.186 30.88C168.282 30.672 168.402 30.448 168.546 30.208C168.69 29.968 168.858 29.744 169.05 29.536C169.242 29.328 169.466 29.16 169.722 29.032C169.978 28.888 170.274 28.816 170.61 28.816ZM190.412 15.712C189.452 15.712 188.604 15.896 187.868 16.264C187.132 16.616 186.508 17.096 185.996 17.704C185.5 18.296 185.124 18.992 184.868 19.792C184.612 20.592 184.484 21.424 184.484 22.288C184.484 23.12 184.612 23.928 184.868 24.712C185.124 25.496 185.492 26.192 185.972 26.8C186.468 27.408 187.076 27.896 187.796 28.264C188.532 28.632 189.38 28.816 190.34 28.816C190.692 28.816 191.036 28.808 191.372 28.792C191.708 28.76 192.132 28.68 192.644 28.552V22.912H195.716V30.112C195.284 30.304 194.82 30.48 194.324 30.64C193.844 30.784 193.364 30.904 192.884 31C192.404 31.096 191.94 31.168 191.492 31.216C191.06 31.264 190.676 31.288 190.34 31.288C188.852 31.288 187.516 31.056 186.332 30.592C185.164 30.128 184.172 29.488 183.356 28.672C182.54 27.856 181.916 26.904 181.484 25.816C181.052 24.712 180.836 23.536 180.836 22.288C180.836 21.024 181.06 19.848 181.508 18.76C181.956 17.656 182.596 16.696 183.428 15.88C184.26 15.064 185.26 14.424 186.428 13.96C187.612 13.48 188.94 13.24 190.412 13.24C191.084 13.24 191.868 13.32 192.764 13.48C193.66 13.64 194.564 13.912 195.476 14.296L194.588 16.6C193.676 16.248 192.892 16.016 192.236 15.904C191.58 15.776 190.972 15.712 190.412 15.712ZM199.187 13.552H209.651V16.024H202.619V28.528H210.035V31H199.187V13.552ZM203.531 23.056C203.611 22.8 203.715 22.528 203.843 22.24C203.971 21.952 204.131 21.688 204.323 21.448C204.515 21.208 204.739 21.016 204.995 20.872C205.267 20.712 205.579 20.632 205.931 20.632H208.835V23.056H203.531Z" fill="black"/>
</svg>
