<svg width="49" height="49" viewBox="0 0 49 49" fill="none" xmlns="http://www.w3.org/2000/svg">
<path d="M10.7188 35.123C13.1627 35.123 16.427 33.4685 20.4205 30.2054C22.1177 28.8187 23.5774 27.4444 24.5 26.5392C25.4226 27.4444 26.8823 28.8187 28.5795 30.2054C32.573 33.4685 35.8373 35.123 38.2812 35.123C44.1389 35.123 48.9043 30.3576 48.9043 24.5C48.9043 18.6424 44.1389 13.877 38.2812 13.877C35.8373 13.877 32.573 15.5315 28.5795 18.7946C26.8823 20.1813 25.4226 21.5556 24.5 22.4608C23.5774 21.5556 22.1177 20.1813 20.4205 18.7946C16.427 15.5315 13.1627 13.877 10.7188 13.877C4.86114 13.877 0.0957031 18.6424 0.0957031 24.5C0.0957031 30.3576 4.86114 35.123 10.7188 35.123ZM30.4189 20.9994C34.9515 17.3003 37.2904 16.748 38.2812 16.748C42.5556 16.748 46.0332 20.2255 46.0332 24.5C46.0332 28.7745 42.5556 32.252 38.2812 32.252C37.2904 32.252 34.9515 31.6996 30.4189 28.0006C28.8136 26.6906 27.4076 25.3669 26.5229 24.5C27.4076 23.633 28.8135 22.3094 30.4189 20.9994ZM10.7188 16.748C11.7096 16.748 14.0485 17.3003 18.5811 20.9994C20.1864 22.3094 21.5924 23.6331 22.4771 24.5C21.5924 25.367 20.1864 26.6906 18.5811 28.0006C14.0485 31.6996 11.7096 32.252 10.7188 32.252C6.44436 32.252 2.9668 28.7745 2.9668 24.5C2.9668 20.2255 6.44436 16.748 10.7188 16.748Z" fill="black"/>
<path d="M47.5645 0H1.43555C0.642742 0 0 0.642742 0 1.43555V7.13792C0 7.93073 0.642742 8.57347 1.43555 8.57347C2.22835 8.57347 2.87109 7.93073 2.87109 7.13792V2.87109H46.1289V7.17773C46.1289 7.97054 46.7716 8.61328 47.5645 8.61328C48.3573 8.61328 49 7.97054 49 7.17773V1.43555C49 0.642742 48.3573 0 47.5645 0Z" fill="black"/>
<path d="M47.5645 40.3867C46.7716 40.3867 46.1289 41.0295 46.1289 41.8223V46.1289H2.87109V41.8621C2.87109 41.0693 2.22835 40.4265 1.43555 40.4265C0.642742 40.4265 0 41.0693 0 41.8621V47.5645C0 48.3573 0.642742 49 1.43555 49H47.5645C48.3573 49 49 48.3573 49 47.5645V41.8223C49 41.0295 48.3573 40.3867 47.5645 40.3867Z" fill="black"/>
</svg>
