<svg width="33" height="33" viewBox="0 0 33 33" fill="none" xmlns="http://www.w3.org/2000/svg">
<path d="M30.9375 3.60938H2.0625C1.65241 3.60992 1.25927 3.77307 0.969297 4.06305C0.67932 4.35302 0.516171 4.74616 0.515625 5.15625V22.6875C0.516171 23.0976 0.67932 23.4907 0.969297 23.7807C1.25927 24.0707 1.65241 24.2338 2.0625 24.2344H12.7224L11.9863 26.8125H9.79688C9.66012 26.8125 9.52897 26.8668 9.43227 26.9635C9.33557 27.0602 9.28125 27.1914 9.28125 27.3281V28.3594H5.15625C5.0195 28.3594 4.88835 28.4137 4.79165 28.5104C4.69495 28.6071 4.64062 28.7382 4.64062 28.875C4.64062 29.0118 4.69495 29.1429 4.79165 29.2396C4.88835 29.3363 5.0195 29.3906 5.15625 29.3906H27.8438C27.9805 29.3906 28.1117 29.3363 28.2084 29.2396C28.305 29.1429 28.3594 29.0118 28.3594 28.875C28.3594 28.7382 28.305 28.6071 28.2084 28.5104C28.1117 28.4137 27.9805 28.3594 27.8438 28.3594H23.7188V27.3281C23.7188 27.1914 23.6644 27.0602 23.5677 26.9635C23.471 26.8668 23.3399 26.8125 23.2031 26.8125H21.0137L20.2776 24.2344H30.9375C31.3476 24.2338 31.7407 24.0707 32.0307 23.7807C32.3207 23.4907 32.4838 23.0976 32.4844 22.6875V5.15625C32.4838 4.74616 32.3207 4.35302 32.0307 4.06305C31.7407 3.77307 31.3476 3.60992 30.9375 3.60938ZM22.6875 27.8438V28.3594H10.3125V27.8438H22.6875ZM13.0588 26.8125L13.7949 24.2344H19.2051L19.9412 26.8125H13.0588ZM31.4531 22.6875C31.4529 22.8242 31.3986 22.9552 31.3019 23.0519C31.2052 23.1486 31.0742 23.2029 30.9375 23.2031H2.0625C1.92581 23.2029 1.79476 23.1486 1.69811 23.0519C1.60145 22.9552 1.54706 22.8242 1.54688 22.6875V21.6562H31.4531V22.6875ZM31.4531 20.625H1.54688V5.15625C1.54706 5.01956 1.60145 4.88851 1.69811 4.79186C1.79476 4.6952 1.92581 4.64081 2.0625 4.64062H30.9375C31.0742 4.64081 31.2052 4.6952 31.3019 4.79186C31.3986 4.88851 31.4529 5.01956 31.4531 5.15625V20.625Z" fill="black"/>
<path d="M24.75 12.9796V10.3125C24.75 10.2143 24.722 10.1182 24.6692 10.0355C24.6165 9.95269 24.5412 9.88669 24.4522 9.84522L16.7178 6.23584C16.6496 6.204 16.5753 6.1875 16.5 6.1875C16.4247 6.1875 16.3504 6.204 16.2821 6.23584L8.54777 9.84522C8.45883 9.8867 8.38358 9.95271 8.33085 10.0355C8.27813 10.1183 8.25012 10.2144 8.25012 10.3125C8.25012 10.4106 8.27813 10.5067 8.33085 10.5895C8.38358 10.6723 8.45883 10.7383 8.54777 10.7798L11.3437 12.0843V18.0469C11.3437 18.1836 11.3981 18.3148 11.4948 18.4115C11.5915 18.5082 11.7226 18.5625 11.8594 18.5625H21.1406C21.2774 18.5625 21.4085 18.5082 21.5052 18.4115C21.6019 18.3148 21.6562 18.1836 21.6562 18.0469V12.0843L23.7187 11.122V12.9796C23.3747 13.1012 23.0848 13.3405 22.9001 13.6553C22.7155 13.97 22.6481 14.3399 22.7098 14.6996C22.7715 15.0592 22.9583 15.3855 23.2373 15.6207C23.5163 15.8559 23.8695 15.9849 24.2344 15.9849C24.5993 15.9849 24.9524 15.8559 25.2314 15.6207C25.5104 15.3855 25.6973 15.0592 25.759 14.6996C25.8207 14.3399 25.7533 13.97 25.5686 13.6553C25.384 13.3405 25.094 13.1012 24.75 12.9796ZM20.625 17.5313H12.375V12.5658L16.2821 14.3892C16.3504 14.421 16.4247 14.4375 16.5 14.4375C16.5753 14.4375 16.6496 14.421 16.7178 14.3892L20.625 12.5658V17.5313ZM16.5 13.3528L9.98508 10.3125L16.5 7.27225L23.0149 10.3125L16.5 13.3528ZM24.2344 14.9531C24.1324 14.9531 24.0327 14.9229 23.9479 14.8662C23.8631 14.8096 23.797 14.729 23.758 14.6348C23.719 14.5406 23.7088 14.4369 23.7287 14.3369C23.7486 14.2369 23.7977 14.145 23.8698 14.0729C23.9419 14.0008 24.0338 13.9517 24.1338 13.9318C24.2338 13.9119 24.3375 13.9221 24.4317 13.9611C24.5259 14.0002 24.6064 14.0662 24.6631 14.151C24.7198 14.2358 24.75 14.3355 24.75 14.4375C24.7498 14.5742 24.6954 14.7052 24.5988 14.8019C24.5021 14.8986 24.3711 14.9529 24.2344 14.9531Z" fill="black"/>
</svg>
