<svg width="33" height="33" viewBox="0 0 33 33" fill="none" xmlns="http://www.w3.org/2000/svg">
<path d="M33 31.9H0V33H33V31.9Z" fill="black"/>
<path d="M2.19996 30.8H7.69996C8.0037 30.8 8.24996 30.5537 8.24996 30.25V20.35C8.24996 20.0463 8.0037 19.8 7.69996 19.8H2.19996C1.89623 19.8 1.64996 20.0463 1.64996 20.35V30.25C1.64996 30.5537 1.89623 30.8 2.19996 30.8ZM2.74996 20.9H7.14996V29.7H2.74996V20.9Z" fill="black"/>
<path d="M17.6 30.8H23.1C23.4037 30.8 23.65 30.5537 23.65 30.25V13.75C23.65 13.4463 23.4037 13.2 23.1 13.2H17.6C17.2963 13.2 17.05 13.4463 17.05 13.75V30.25C17.05 30.5537 17.2963 30.8 17.6 30.8ZM18.15 14.3H22.55V29.7H18.15V14.3Z" fill="black"/>
<path d="M9.89998 30.8H15.4C15.7037 30.8 15.95 30.5538 15.95 30.25V7.15004C15.95 6.8463 15.7037 6.60004 15.4 6.60004H9.89998C9.59624 6.60004 9.34998 6.8463 9.34998 7.15004V30.25C9.34998 30.5538 9.59624 30.8 9.89998 30.8ZM10.45 7.70004H14.85V29.7H10.45V7.70004Z" fill="black"/>
<path d="M25.3 30.8H30.8C31.1037 30.8 31.35 30.5537 31.35 30.25V0.55C31.35 0.246262 31.1037 0 30.8 0H25.3C24.9963 0 24.75 0.246262 24.75 0.55V30.25C24.75 30.5537 24.9963 30.8 25.3 30.8ZM25.85 1.1H30.25V29.7H25.85V1.1Z" fill="black"/>
</svg>
