<svg width="33" height="33" viewBox="0 0 33 33" fill="none" xmlns="http://www.w3.org/2000/svg">
<g clip-path="url(#clip0)">
<path d="M13.0625 11H2.0625C0.925375 11 0 10.0746 0 8.9375V2.0625C0 0.925375 0.925375 0 2.0625 0H13.0625C14.1996 0 15.125 0.925375 15.125 2.0625V8.9375C15.125 10.0746 14.1996 11 13.0625 11ZM2.0625 1.375C1.68438 1.375 1.375 1.683 1.375 2.0625V8.9375C1.375 9.317 1.68438 9.625 2.0625 9.625H13.0625C13.4406 9.625 13.75 9.317 13.75 8.9375V2.0625C13.75 1.683 13.4406 1.375 13.0625 1.375H2.0625Z" fill="black"/>
<path d="M13.0625 33H2.0625C0.925375 33 0 32.0746 0 30.9375V15.8125C0 14.6754 0.925375 13.75 2.0625 13.75H13.0625C14.1996 13.75 15.125 14.6754 15.125 15.8125V30.9375C15.125 32.0746 14.1996 33 13.0625 33ZM2.0625 15.125C1.68438 15.125 1.375 15.433 1.375 15.8125V30.9375C1.375 31.317 1.68438 31.625 2.0625 31.625H13.0625C13.4406 31.625 13.75 31.317 13.75 30.9375V15.8125C13.75 15.433 13.4406 15.125 13.0625 15.125H2.0625Z" fill="black"/>
<path d="M30.9375 33H19.9375C18.8004 33 17.875 32.0746 17.875 30.9375V24.0625C17.875 22.9254 18.8004 22 19.9375 22H30.9375C32.0746 22 33 22.9254 33 24.0625V30.9375C33 32.0746 32.0746 33 30.9375 33ZM19.9375 23.375C19.5594 23.375 19.25 23.683 19.25 24.0625V30.9375C19.25 31.317 19.5594 31.625 19.9375 31.625H30.9375C31.3156 31.625 31.625 31.317 31.625 30.9375V24.0625C31.625 23.683 31.3156 23.375 30.9375 23.375H19.9375Z" fill="black"/>
<path d="M30.9375 19.25H19.9375C18.8004 19.25 17.875 18.3246 17.875 17.1875V2.0625C17.875 0.925375 18.8004 0 19.9375 0H30.9375C32.0746 0 33 0.925375 33 2.0625V17.1875C33 18.3246 32.0746 19.25 30.9375 19.25ZM19.9375 1.375C19.5594 1.375 19.25 1.683 19.25 2.0625V17.1875C19.25 17.567 19.5594 17.875 19.9375 17.875H30.9375C31.3156 17.875 31.625 17.567 31.625 17.1875V2.0625C31.625 1.683 31.3156 1.375 30.9375 1.375H19.9375Z" fill="black"/>
</g>
<defs>
<clipPath id="clip0">
<rect width="33" height="33" fill="white"/>
</clipPath>
</defs>
</svg>
