<svg width="22" height="22" viewBox="0 0 22 22" fill="none" xmlns="http://www.w3.org/2000/svg">
<path d="M18.3081 3.04863C16.3543 1.30453 13.7586 0.34375 11 0.34375C8.24141 0.34375 5.64566 1.30453 3.69187 3.04863C1.72691 4.80305 0.644531 7.1384 0.644531 9.625C0.644531 11.5994 1.32344 13.4776 2.60992 15.0666L1.42398 21.2476C1.41187 21.3105 1.41757 21.3755 1.44044 21.4354C1.46331 21.4952 1.50243 21.5474 1.55341 21.5862C1.60438 21.625 1.66517 21.6488 1.72893 21.6548C1.79269 21.6609 1.85688 21.649 1.91426 21.6206L8.12668 18.544C9.0653 18.7857 10.0308 18.9074 11 18.9063C13.7586 18.9063 16.3543 17.9455 18.3081 16.2014C20.2731 14.447 21.3555 12.1116 21.3555 9.625C21.3555 7.1384 20.2731 4.80305 18.3081 3.04863ZM11 18.2188C10.0476 18.22 9.09915 18.095 8.17953 17.8471C8.09858 17.825 8.01236 17.8335 7.93719 17.8707L2.22965 20.6972L3.31547 15.0378C3.32505 14.9876 3.32335 14.936 3.31049 14.8865C3.29763 14.8371 3.27394 14.7912 3.24113 14.752C1.99203 13.2619 1.33203 11.489 1.33203 9.625C1.33203 4.88641 5.66887 1.03125 11 1.03125C16.3311 1.03125 20.668 4.88641 20.668 9.625C20.668 14.3636 16.3311 18.2188 11 18.2188Z" fill="black"/>
<path d="M11.043 10.6562C10.839 10.6562 10.6396 10.5958 10.47 10.4825C10.3005 10.3691 10.1683 10.2081 10.0902 10.0196C10.0122 9.83121 9.99174 9.62386 10.0315 9.42381C10.0713 9.22377 10.1695 9.04002 10.3138 8.8958C10.458 8.75157 10.6417 8.65336 10.8418 8.61357C11.0418 8.57377 11.2492 8.5942 11.4376 8.67225C11.6261 8.7503 11.7871 8.88248 11.9004 9.05207C12.0137 9.22166 12.0742 9.42104 12.0742 9.625C12.0739 9.89841 11.9652 10.1605 11.7718 10.3539C11.5785 10.5472 11.3164 10.6559 11.043 10.6562ZM11.043 9.28125C10.975 9.28125 10.9085 9.30141 10.852 9.33918C10.7955 9.37695 10.7514 9.43064 10.7254 9.49345C10.6994 9.55626 10.6926 9.62538 10.7058 9.69206C10.7191 9.75874 10.7518 9.81999 10.7999 9.86807C10.848 9.91614 10.9092 9.94888 10.9759 9.96214C11.0426 9.97541 11.1117 9.9686 11.1745 9.94258C11.2373 9.91657 11.291 9.87251 11.3288 9.81598C11.3666 9.75945 11.3867 9.69299 11.3867 9.625C11.3866 9.53386 11.3504 9.44649 11.2859 9.38205C11.2215 9.3176 11.1341 9.28135 11.043 9.28125Z" fill="black"/>
<path d="M7.60547 10.6562C7.40151 10.6562 7.20213 10.5958 7.03254 10.4825C6.86295 10.3691 6.73077 10.2081 6.65272 10.0196C6.57467 9.83121 6.55424 9.62386 6.59403 9.42381C6.63383 9.22377 6.73204 9.04002 6.87627 8.8958C7.02049 8.75157 7.20424 8.65336 7.40428 8.61357C7.60432 8.57377 7.81167 8.5942 8.00011 8.67225C8.18855 8.7503 8.34961 8.88248 8.46292 9.05207C8.57624 9.22166 8.63672 9.42104 8.63672 9.625C8.6364 9.89841 8.52765 10.1605 8.33432 10.3539C8.14099 10.5472 7.87888 10.6559 7.60547 10.6562ZM7.60547 9.28125C7.53748 9.28125 7.47102 9.30141 7.41449 9.33918C7.35796 9.37695 7.3139 9.43064 7.28789 9.49345C7.26187 9.55626 7.25506 9.62538 7.26832 9.69206C7.28159 9.75874 7.31433 9.81999 7.3624 9.86807C7.41047 9.91614 7.47173 9.94888 7.53841 9.96214C7.60509 9.97541 7.6742 9.9686 7.73702 9.94258C7.79983 9.91657 7.85351 9.87251 7.89129 9.81598C7.92906 9.75945 7.94922 9.69299 7.94922 9.625C7.94912 9.53386 7.91287 9.44649 7.84842 9.38205C7.78398 9.3176 7.69661 9.28135 7.60547 9.28125Z" fill="black"/>
<path d="M14.4805 8.59375C14.2765 8.59375 14.0771 8.65423 13.9075 8.76755C13.7379 8.88086 13.6058 9.04192 13.5277 9.23036C13.4497 9.41879 13.4292 9.62614 13.469 9.82619C13.5088 10.0262 13.607 10.21 13.7513 10.3542C13.8955 10.4984 14.0792 10.5966 14.2793 10.6364C14.4793 10.6762 14.6867 10.6558 14.8751 10.5777C15.0635 10.4997 15.2246 10.3675 15.3379 10.1979C15.4512 10.0283 15.5117 9.82896 15.5117 9.625C15.5114 9.35161 15.4026 9.08952 15.2093 8.8962C15.016 8.70288 14.7539 8.59411 14.4805 8.59375ZM14.4805 9.96875C14.4125 9.96875 14.346 9.94859 14.2895 9.91082C14.233 9.87305 14.1889 9.81936 14.1629 9.75655C14.1369 9.69373 14.1301 9.62462 14.1433 9.55794C14.1566 9.49126 14.1893 9.43001 14.2374 9.38193C14.2855 9.33386 14.3467 9.30112 14.4134 9.28785C14.4801 9.27459 14.5492 9.2814 14.612 9.30742C14.6748 9.33343 14.7285 9.37749 14.7663 9.43402C14.8041 9.49055 14.8242 9.55701 14.8242 9.625C14.8241 9.71613 14.7878 9.80349 14.7234 9.86793C14.659 9.93237 14.5716 9.96862 14.4805 9.96875Z" fill="black"/>
</svg>
