<svg width="22" height="22" viewBox="0 0 22 22" fill="none" xmlns="http://www.w3.org/2000/svg">
<path d="M18.2271 19.027H3.77308C3.46346 19.027 3.15979 18.942 2.89514 18.7813C2.63049 18.6206 2.415 18.3904 2.27212 18.1157C2.12925 17.841 2.06447 17.5324 2.08485 17.2235C2.10522 16.9145 2.20996 16.6171 2.38767 16.3636C3.26618 15.1131 3.85602 12.7187 3.85602 11.267V9.99068C3.85602 6.04912 6.99964 2.7836 10.8636 2.71166C11.813 2.69376 12.7565 2.86528 13.6389 3.21619C14.5212 3.56709 15.3248 4.09035 16.0026 4.75538C16.6804 5.42041 17.2189 6.21388 17.5865 7.0894C17.9542 7.96492 18.1436 8.90494 18.1438 9.85452V11.2676C18.1438 12.7193 18.734 15.1137 19.6122 16.3641C19.7897 16.6177 19.8943 16.915 19.9146 17.2238C19.9349 17.5327 19.8701 17.8411 19.7273 18.1157C19.5845 18.3903 19.3691 18.6204 19.1046 18.7811C18.8401 18.9418 18.5366 19.0268 18.2271 19.027ZM2.87435 16.7051C2.75916 16.8696 2.69129 17.0625 2.67813 17.2629C2.66497 17.4632 2.70701 17.6633 2.79969 17.8414C2.89236 18.0196 3.03212 18.1688 3.20374 18.2731C3.37537 18.3773 3.57229 18.4324 3.77308 18.4324H18.2271C18.4279 18.4324 18.6248 18.3773 18.7964 18.2731C18.968 18.1688 19.1078 18.0196 19.2005 17.8414C19.2931 17.6633 19.3352 17.4632 19.322 17.2629C19.3089 17.0625 19.241 16.8696 19.1258 16.7051C18.1522 15.3188 17.5501 12.8031 17.5501 11.267V9.85482C17.5499 8.98429 17.3762 8.12254 17.0392 7.31992C16.7021 6.5173 16.2084 5.78991 15.587 5.18027C14.9656 4.57063 14.2289 4.09095 13.42 3.76929C12.6111 3.44762 11.7462 3.29041 10.8758 3.30685C7.33351 3.37285 4.45181 6.37139 4.45181 9.99128V11.2676C4.45181 12.8037 3.84918 15.3197 2.87613 16.7057L2.87435 16.7051Z" fill="black"/>
<path d="M11.0002 3.30536C10.7321 3.30536 10.47 3.22587 10.2471 3.07694C10.0243 2.92801 9.85053 2.71633 9.74795 2.46867C9.64536 2.221 9.61852 1.94848 9.67082 1.68556C9.72312 1.42265 9.8522 1.18114 10.0418 0.991586C10.2313 0.802033 10.4728 0.672946 10.7357 0.620648C10.9987 0.568351 11.2712 0.595192 11.5188 0.697777C11.7665 0.800363 11.9782 0.974085 12.1271 1.19698C12.276 1.41987 12.3555 1.68192 12.3555 1.94998C12.3551 2.30933 12.2122 2.65385 11.9581 2.90795C11.704 3.16205 11.3595 3.30497 11.0002 3.30536ZM11.0002 1.1892C10.8497 1.1892 10.7026 1.23382 10.5775 1.31742C10.4524 1.40101 10.3549 1.51983 10.2973 1.65884C10.2397 1.79786 10.2246 1.95083 10.254 2.09841C10.2833 2.24598 10.3558 2.38154 10.4622 2.48794C10.5686 2.59434 10.7042 2.6668 10.8517 2.69615C10.9993 2.72551 11.1523 2.71044 11.2913 2.65286C11.4303 2.59528 11.5491 2.49776 11.6327 2.37265C11.7163 2.24754 11.7609 2.10045 11.7609 1.94998C11.7607 1.74828 11.6805 1.55491 11.5379 1.41229C11.3952 1.26967 11.2019 1.18944 11.0002 1.1892Z" fill="black"/>
<path d="M11.0001 21.4054C10.2907 21.4046 9.61064 21.1225 9.10902 20.6209C8.6074 20.1192 8.32525 19.4391 8.32446 18.7297H8.91906C8.91906 19.2817 9.13831 19.811 9.52859 20.2013C9.91887 20.5916 10.4482 20.8108 11.0001 20.8108C11.5521 20.8108 12.0814 20.5916 12.4717 20.2013C12.862 19.811 13.0812 19.2817 13.0812 18.7297H13.6758C13.675 19.4391 13.3929 20.1192 12.8913 20.6209C12.3896 21.1225 11.7095 21.4046 11.0001 21.4054Z" fill="black"/>
</svg>
