<svg width="40" height="40" viewBox="0 0 40 40" fill="none" xmlns="http://www.w3.org/2000/svg">
<g clip-path="url(#clip0)">
<path d="M9.46624 17.6277C9.14254 17.6277 8.88026 17.8901 8.88026 18.2137C8.88026 18.5545 8.60297 18.8318 8.26216 18.8318C7.92143 18.8318 7.64414 18.5545 7.64414 18.2137C7.64414 17.8901 7.38185 17.6277 7.05815 17.6277C5.79867 17.7425 6.70656 20.0745 8.26216 20.0037C9.81799 20.0745 10.7256 17.7425 9.46624 17.6277Z" fill="black"/>
<path d="M11.0295 15.0858C10.7058 15.0858 10.4435 15.3482 10.4435 15.6718V16.4414C10.4631 17.2141 11.5961 17.2142 11.6155 16.4414V16.2362C12.2603 16.0504 12.1366 15.0934 11.4571 15.0859C11.4572 15.0858 11.0295 15.0858 11.0295 15.0858Z" fill="black"/>
<path d="M5.49491 15.0858H5.0673C4.38771 15.0933 4.2645 16.0506 4.90893 16.2361V16.4414C4.92854 17.2142 6.06137 17.2142 6.0809 16.4414V15.6719C6.0809 15.3482 5.81861 15.0858 5.49491 15.0858Z" fill="black"/>
<path d="M38.3416 3.07837H33.6537C33.33 3.07837 33.0677 3.34073 33.0677 3.66435C33.0677 3.98797 33.33 4.25034 33.6537 4.25034H38.3416C38.6059 4.25034 38.828 4.46325 38.828 4.73679V25.0458C38.828 25.314 38.6098 25.5322 38.3416 25.5322C37.1473 25.5322 17.2282 25.5322 16.4848 25.5322C16.4074 25.2078 16.2663 24.8649 16.0709 24.5593H36.934C37.4419 24.5593 37.8551 24.1461 37.8551 23.6382V6.1444C37.8551 5.63647 37.4419 5.22323 36.934 5.22323C6.78142 5.22323 8.52203 5.20472 8.33061 5.26027C7.78791 5.25706 7.25872 5.30418 6.68781 5.42926V4.73686C6.68781 4.46864 6.90604 4.25042 7.17426 4.25042H30.9191C31.2428 4.25042 31.5051 3.98805 31.5051 3.66443C31.5051 3.34081 31.2428 3.07845 30.9191 3.07845H7.17426C6.25981 3.07845 5.51584 3.82241 5.51584 4.73686V5.79219C2.35965 7.08292 0.674977 10.1419 0.938124 13.6252C-0.506838 14.8584 -0.0333621 17.3935 1.93328 17.9224C1.41504 19.7158 1.91969 21.7548 3.18714 23.094C1.42934 23.0963 0 24.527 0 26.2853V31.7399C0 32.0635 0.262287 32.3258 0.585986 32.3258C0.909684 32.3258 1.17197 32.0635 1.17197 31.7399V26.2853C1.17197 25.1717 2.07798 24.2658 3.19151 24.2658H3.97329L5.66843 26.3482V30.1425C5.62484 30.2728 5.6382 29.8956 5.6382 35.7495H1.17197V34.4745C1.17197 34.1509 0.909684 33.8885 0.585986 33.8885C0.262287 33.8885 0 34.1509 0 34.4745V36.3355C0 36.6591 0.262287 36.9215 0.585986 36.9215H19.8415C20.3908 36.9215 20.8377 36.4745 20.8377 35.9252V29.388C20.8377 29.2856 20.8221 29.1868 20.7933 29.0937L23.698 27.5069C23.9918 27.3465 24.1743 27.039 24.1746 26.7044H38.3416C39.256 26.7044 40 25.9605 40 25.0459V4.73679C40 3.81695 39.2518 3.07837 38.3416 3.07837ZM27.8646 23.3874C27.8551 23.3874 27.8474 23.3796 27.8474 23.3701V21.3024C27.8407 21.2498 33.9018 21.3041 33.917 21.2851C33.9265 21.2852 33.9343 21.2929 33.9343 21.3024V23.3701C33.9343 23.3796 33.9265 23.3874 33.917 23.3874H27.8646ZM36.6832 6.3952V23.3874H35.1053C35.1152 23.3705 35.1 21.3203 35.1062 21.3024C35.1062 20.6467 34.5727 20.1132 33.9169 20.1132H27.8646C27.2088 20.1132 26.6753 20.6467 26.6753 21.3024C26.6762 21.3197 26.6737 23.3717 26.6762 23.3875H14.7218C14.2736 23.1817 13.834 23.0939 13.3492 23.0939C14.631 21.7104 15.1105 19.7434 14.6047 17.9255C16.5475 17.4357 17.0691 14.8792 15.6035 13.6247C15.7425 11.7901 15.362 8.35857 12.2032 6.39536H36.6832V6.3952ZM8.2867 24.7578L6.78876 22.5697C7.75095 22.8033 8.83518 22.8038 9.79198 22.5588L8.2867 24.7578ZM11.2374 22.0514V21.9996C12.2268 21.4664 13.0435 20.6815 13.6144 19.7403C13.5217 20.8608 12.9953 21.9274 12.0704 22.6899C11.2759 22.0809 11.4804 22.2377 11.2374 22.0514ZM14.5177 14.4969H14.8207C15.435 14.9779 15.5102 16.2568 14.5125 16.7129C14.525 16.3289 14.5177 15.596 14.5177 14.4969ZM13.3448 14.4969C13.3459 14.6067 13.3459 14.4891 13.3457 16.4611C13.3414 16.7976 13.3313 17.2336 13.1681 17.836C11.7783 22.8447 4.66085 22.7315 3.34449 17.7845C3.23573 17.3715 3.18034 16.9124 3.18026 16.5092C3.18026 13.6697 3.18042 14.7536 3.18042 14.4969H4.84509C6.30114 14.4969 7.57914 13.7204 8.2867 12.5596C8.99425 13.7204 10.2723 14.4969 11.7283 14.4969H13.3448ZM5.33583 22.0256V22.0514L4.48193 22.7059C3.58279 21.9733 3.02017 20.9115 2.9204 19.7568C3.50294 20.7088 4.34372 21.5039 5.33583 22.0256ZM2.11017 12.5766C2.56779 3.92875 14.9161 4.72507 14.4317 13.3249C13.3143 13.3249 12.8511 13.3249 11.7283 13.3249C10.1537 13.3249 8.87268 12.0439 8.87268 10.4693C8.85338 9.69727 7.72032 9.69586 7.70071 10.4693C7.70071 12.0439 6.41967 13.3249 4.84509 13.3249C3.8793 13.3249 3.07564 13.3249 2.11017 13.3249V12.5766ZM1.26213 15.5148C1.2587 15.1221 1.42816 14.751 1.72108 14.4969H2.00829C2.00829 16.6806 2.00704 16.5696 2.01149 16.7057C1.52114 16.4716 1.26213 15.9826 1.26213 15.5148ZM6.70883 25.77L5.05752 23.7414C5.48451 23.4141 5.5142 23.3913 5.78751 23.1818L7.70063 25.9765V35.7494H6.81017V30.515C6.8533 30.3862 6.84041 30.6813 6.84041 26.1399C6.84041 26.0051 6.79392 25.8745 6.70883 25.77ZM8.87268 25.9765L10.7857 23.1818L11.5157 23.7413L9.8644 25.7699C9.77932 25.8745 9.73283 26.0051 9.73283 26.1399V35.7494H8.8726V25.9765H8.87268ZM10.9048 26.3482L12.5999 24.2658H13.3855C14.5136 24.2658 15.4013 25.1919 15.4013 26.2816V28.3972C14.9123 28.4489 14.5104 28.8678 14.5104 29.3879V35.7495H10.9048V26.3482ZM19.6658 35.7495H15.6824V29.5637H19.6658V35.7495ZM19.6336 28.3917H16.8325L17.086 27.504C17.2206 27.0331 17.6565 26.7042 18.1462 26.7042H22.7226L19.6336 28.3917Z" fill="black"/>
<path d="M27.4152 14.373H30.1257C30.8977 14.3537 30.899 13.2207 30.1257 13.201H27.4152C26.6431 13.2203 26.6418 14.3534 27.4152 14.373Z" fill="black"/>
<path d="M27.4152 16.2751H30.1257C30.8977 16.2558 30.899 15.1228 30.1257 15.1031H27.4152C26.6431 15.1224 26.6418 16.2555 27.4152 16.2751Z" fill="black"/>
<path d="M20.1807 15.324H21.2347V16.378C21.2347 16.7017 21.497 16.964 21.8207 16.964C22.1444 16.964 22.4067 16.7017 22.4067 16.378V15.324H23.4222C23.7459 15.324 24.0082 15.0616 24.0082 14.738C24.0082 14.4144 23.7459 14.152 23.4222 14.152H22.4067V13.1365C22.4067 12.8129 22.1444 12.5505 21.8207 12.5505C21.497 12.5505 21.2347 12.8129 21.2347 13.1365V14.152H20.1807C19.4078 14.1715 19.408 15.3046 20.1807 15.324Z" fill="black"/>
<path d="M17.2687 12.8915H17.7309V17.2091C17.7309 17.5327 17.9932 17.7951 18.3169 17.7951C18.6406 17.7951 18.9029 17.5327 18.9029 17.2091V12.3055C18.9029 11.9818 18.6406 11.7195 18.3169 11.7195H17.2687C16.4959 11.7396 16.4959 12.8715 17.2687 12.8915Z" fill="black"/>
<path d="M31.8244 13.8764C32.1427 13.9388 32.45 13.7317 32.5124 13.4143C32.5719 13.1114 32.8398 12.8914 33.1495 12.8914C33.5031 12.8914 33.8392 13.1855 33.7839 13.6212C33.6971 13.9614 33.5015 14.3556 31.9025 16.4494C31.601 16.844 31.4498 17.0421 31.549 17.3645C31.6322 17.6347 31.8819 17.795 32.1294 17.795H34.5895C34.9132 17.795 35.1755 17.5326 35.1755 17.209C35.1755 16.8854 34.9132 16.623 34.5895 16.623H33.2401C34.4539 14.993 34.7867 14.4862 34.9319 13.8599C35.3292 11.5624 31.9313 10.8083 31.3623 13.1883C31.3 13.506 31.5069 13.8141 31.8244 13.8764Z" fill="black"/>
<path d="M24.2378 12.8915H24.7V17.2091C24.7 17.5327 24.9623 17.7951 25.286 17.7951C25.6097 17.7951 25.872 17.5327 25.872 17.2091V12.3055C25.872 11.9818 25.6097 11.7195 25.286 11.7195H24.2378C23.465 11.7396 23.4649 12.8715 24.2378 12.8915Z" fill="black"/>
</g>
<defs>
<clipPath id="clip0">
<rect width="40" height="40" fill="white"/>
</clipPath>
</defs>
</svg>
