<svg width="40" height="40" viewBox="0 0 40 40" fill="none" xmlns="http://www.w3.org/2000/svg">
<g clip-path="url(#clip0)">
<path d="M39.9573 29.8986L39.214 26.1288C38.9153 24.6139 38.1794 23.2368 37.0861 22.1464L35.7808 20.8449V16.4088C36.5966 16.0864 37.1755 15.2905 37.1755 14.3614C37.1755 14.1107 37.1327 13.8697 37.0551 13.645C37.9794 13.384 38.6589 12.5336 38.6589 11.527C38.6589 11.2611 38.6115 11.0061 38.5247 10.77C39.3826 10.4693 39.9997 9.65184 39.9997 8.69262C39.9997 7.73333 39.3826 6.91598 38.5247 6.61528C38.6115 6.37911 38.6589 6.12411 38.6589 5.85825C38.6589 4.64458 37.6715 3.65731 36.458 3.65731H32.0469C32.4519 3.16817 32.6466 2.51192 32.5291 1.84528C32.4241 1.24966 32.0915 0.733406 31.5926 0.391531C31.0937 0.049656 30.4921 -0.0741721 29.899 0.0428591L26.1291 0.786218C24.6142 1.08497 23.2372 1.82083 22.1469 2.91419L20.8453 4.2195H16.4092C16.0868 3.40372 15.2909 2.82481 14.3619 2.82481C14.1112 2.82481 13.8702 2.86755 13.6455 2.9452C13.3845 2.02091 12.5341 1.34137 11.5276 1.34137C11.2617 1.34137 11.0067 1.3888 10.7705 1.47559C10.4698 0.617703 9.65241 0.000593463 8.69319 0.000593463C7.7339 0.000593463 6.91655 0.617781 6.61585 1.47567C6.37968 1.38887 6.12468 1.34145 5.85882 1.34145C4.64522 1.34145 3.65788 2.3288 3.65788 3.54239V7.9534C3.16882 7.54856 2.51272 7.35387 1.84585 7.47137C1.25022 7.57637 0.733974 7.90895 0.392099 8.40786C0.0502236 8.90669 -0.0736046 9.50825 0.0433485 10.1015L0.786864 13.8713C1.08561 15.3862 1.82147 16.7632 2.91476 17.8536L4.21999 19.1551V23.5911C3.40413 23.9136 2.82515 24.7095 2.82515 25.6385C2.82515 25.8893 2.86788 26.1302 2.94554 26.355C2.02124 26.616 1.34171 27.4663 1.34171 28.4729C1.34171 28.7389 1.38913 28.9939 1.47593 29.23C0.617958 29.5307 0.000926666 30.3482 0.000926666 31.3074C0.000926666 32.2667 0.618036 33.084 1.47593 33.3847C1.38913 33.6208 1.34171 33.8759 1.34171 34.1418C1.34171 35.3554 2.32913 36.3427 3.54265 36.3427H7.95366C7.54882 36.8318 7.35405 37.488 7.47163 38.1546C7.57663 38.7503 7.90921 39.2665 8.40804 39.6083C8.78429 39.8662 9.21897 40 9.66452 40C9.8096 40 9.95593 39.9857 10.1018 39.9571L13.8716 39.2136C15.3864 38.915 16.7635 38.1791 17.8539 37.0857L19.1555 35.7804H23.5916C23.914 36.5963 24.7098 37.1753 25.6389 37.1753C25.8897 37.1753 26.1306 37.1325 26.3554 37.0549C26.6164 37.9792 27.4668 38.6586 28.4733 38.6586C28.7391 38.6586 28.9942 38.6112 29.2304 38.5244C29.531 39.3824 30.3484 39.9994 31.3076 39.9994C32.2669 39.9994 33.0844 39.3823 33.385 38.5244C33.6212 38.6112 33.8762 38.6586 34.1421 38.6586C35.3557 38.6586 36.343 37.6712 36.343 36.4577V32.0468C36.8321 32.4516 37.488 32.6464 38.155 32.5288C38.7506 32.4238 39.2669 32.0912 39.6087 31.5924C39.9505 31.0936 40.0744 30.4919 39.9573 29.8986ZM16.5631 10.2987V8.16919V5.78192H21.1697C21.3773 5.78192 21.5763 5.69926 21.7229 5.55231L23.2533 4.01755C24.1236 3.14497 25.2224 2.55762 26.4315 2.31926L30.2013 1.57591C30.3794 1.54091 30.5598 1.57794 30.7095 1.68051C30.8592 1.78309 30.959 1.93801 30.9905 2.11669C31.0516 2.46301 30.8319 2.79981 30.4905 2.88356L28.9238 3.2677C28.4297 3.3888 28.1152 3.84333 28.1762 4.34841C28.2373 4.85348 28.6508 5.22012 29.1596 5.22012H36.4582C36.8103 5.22012 37.0967 5.50661 37.0967 5.85864C37.0967 6.18489 36.8507 6.45426 36.5344 6.49208L32.2105 6.49708C31.7791 6.49708 31.4293 6.84684 31.4293 7.27833C31.4293 7.70981 31.7791 8.05958 32.2105 8.05958L37.7991 8.05458C38.1512 8.05458 38.4376 8.34106 38.4376 8.69309C38.4376 9.04512 38.1512 9.33161 37.7991 9.33161H32.2105C31.7791 9.33161 31.4293 9.68137 31.4293 10.1129C31.4293 10.5443 31.7791 10.8941 32.2105 10.8941H36.5348C36.8509 10.9321 37.0967 11.2015 37.0967 11.5275C37.0967 11.8796 36.8103 12.1661 36.4582 12.1661H32.2105C31.7791 12.1661 31.4293 12.5158 31.4293 12.9473C31.4293 13.3788 31.7791 13.7286 32.2105 13.7286H35.0511C35.3672 13.7665 35.6133 14.0358 35.6133 14.3621C35.6133 14.7141 35.3269 15.0005 34.9748 15.0005H27.0851C25.4323 15.0005 23.8793 14.356 22.7123 13.1856L21.723 12.1936C21.5765 12.0466 21.3774 11.964 21.1698 11.964H16.5631V10.2987ZM4.01796 16.7469C3.1453 15.8768 2.55804 14.7779 2.31976 13.5688L1.57632 9.79903C1.54116 9.62098 1.57835 9.44051 1.68093 9.29083C1.7835 9.14114 1.93843 9.04137 2.1171 9.00989C2.46382 8.94895 2.80015 9.16848 2.8839 9.50997L3.26796 11.0765C3.38897 11.5707 3.84382 11.8846 4.34858 11.8241C4.85374 11.7632 5.22038 11.3496 5.22038 10.8408V3.54223C5.22038 3.1902 5.50679 2.90372 5.8589 2.90372C6.18507 2.90372 6.45436 3.14966 6.49233 3.46575L6.49733 7.78989C6.49733 8.22137 6.84718 8.57114 7.27858 8.57114C7.70999 8.57114 8.05983 8.22137 8.05983 7.78989V3.54223C8.05983 3.49466 8.0578 3.44762 8.05483 3.40075V2.20137C8.05483 1.84934 8.34124 1.56294 8.69335 1.56294C9.04546 1.56294 9.33187 1.84934 9.33187 2.20137V3.40083C9.3289 3.44762 9.32686 3.49473 9.32686 3.54231L9.33187 7.78997C9.33187 8.22145 9.68171 8.57122 10.1131 8.57122C10.5445 8.57122 10.8944 8.22145 10.8944 7.78997V3.46575C10.9323 3.14966 11.2017 2.90372 11.5278 2.90372C11.8799 2.90372 12.1663 3.1902 12.1663 3.54223C12.1663 3.54223 12.1632 7.34286 12.1663 7.37129V7.78997C12.1663 8.22145 12.5162 8.57122 12.9476 8.57122C13.379 8.57122 13.7288 8.22145 13.7288 7.78997V4.94919C13.7668 4.63309 14.0362 4.38716 14.3623 4.38716C14.7144 4.38716 15.0008 4.67364 15.0008 5.02567V12.9153C15.0008 14.5441 14.3392 16.138 13.1859 17.2882L12.1939 18.2774C12.0469 18.4239 11.9643 18.623 11.9643 18.8306V23.4372H10.4019V21.3629C10.4019 20.9315 10.052 20.5817 9.62062 20.5817C9.18921 20.5817 8.83937 20.9315 8.83937 21.3629V23.4372H5.78241V18.8306C5.78241 18.623 5.69976 18.4239 5.5528 18.2774L4.01796 16.7469ZM23.4379 34.2178H18.8311V34.2179C18.6235 34.2179 18.4244 34.3005 18.2779 34.4474L16.7474 35.9821C15.8772 36.8549 14.7783 37.4421 13.5693 37.6804L9.79944 38.4238C9.62132 38.459 9.44093 38.4218 9.29124 38.3192C9.14155 38.2165 9.04179 38.0617 9.0103 37.883C8.94921 37.5368 9.1689 37.2 9.5103 37.1163L11.0771 36.7321C11.5712 36.611 11.8855 36.1565 11.8244 35.6514C11.7635 35.1464 11.3499 34.7798 10.8412 34.7798H3.54272C3.19061 34.7798 2.90421 34.4934 2.90421 34.1413C2.90421 33.815 3.15038 33.5455 3.46671 33.5078L7.79046 33.5029C8.22186 33.5029 8.57171 33.153 8.57171 32.7216C8.57171 32.2902 8.22186 31.9404 7.79046 31.9404L2.20194 31.9453C1.84983 31.9453 1.56343 31.6589 1.56343 31.3068C1.56343 30.9547 1.84983 30.6683 2.20194 30.6683H7.79046C8.22186 30.6683 8.57171 30.3185 8.57171 29.8871C8.57171 29.4557 8.22186 29.1058 7.79046 29.1058H3.46671C3.15038 29.0681 2.90421 28.7986 2.90421 28.4723C2.90421 28.1203 3.19061 27.8339 3.54272 27.8339H7.79046C8.22186 27.8339 8.57171 27.484 8.57171 27.0526C8.57171 26.6212 8.22186 26.2714 7.79046 26.2714H4.95015C4.6339 26.2336 4.38772 25.9642 4.38772 25.6379C4.38772 25.2857 4.67413 24.9993 5.02616 24.9993H12.9158C14.5685 24.9993 16.1216 25.6439 17.2887 26.8143L18.2779 27.8063C18.4244 27.9533 18.6235 28.0359 18.8311 28.0359H23.4379V34.2178ZM23.4617 26.4739H19.1553L18.3951 25.7115C17.0773 24.39 15.3671 23.6039 13.5265 23.4612V19.1548L14.2889 18.3946C15.5896 17.0975 16.3907 15.3502 16.538 13.5259H20.8455L21.6058 14.2883C22.9235 15.6098 24.6338 16.3959 26.4744 16.5386V20.8451L25.712 21.6054C24.3905 22.9229 23.6044 24.6333 23.4617 26.4739ZM38.3198 30.7089C38.2172 30.8586 38.0623 30.9584 37.8835 30.99C37.5369 31.0514 37.2005 30.8314 37.1169 30.4899L36.7327 28.9232C36.6116 28.4289 36.1562 28.1151 35.6519 28.1757C35.1469 28.2368 34.7803 28.6503 34.7803 29.159V36.4576C34.7803 36.8097 34.4939 37.0961 34.1419 37.0961C33.8155 37.0961 33.5461 36.85 33.5084 36.5336L33.5034 32.21C33.5034 31.7786 33.1536 31.4287 32.7222 31.4287C32.2908 31.4287 31.9409 31.7786 31.9409 32.21L31.9459 37.7986C31.9459 38.1506 31.6594 38.437 31.3073 38.437C30.9553 38.437 30.6689 38.1506 30.6689 37.7986V32.21C30.6689 31.7786 30.3191 31.4287 29.8876 31.4287C29.4562 31.4287 29.1064 31.7786 29.1064 32.21V36.5336C29.0687 36.85 28.7992 37.0961 28.4729 37.0961C28.1208 37.0961 27.8344 36.8097 27.8344 36.4576V32.21C27.8344 31.7786 27.4845 31.4287 27.0531 31.4287C26.6217 31.4287 26.2719 31.7786 26.2719 32.21V35.0507C26.2339 35.3668 25.9645 35.6128 25.6384 35.6128C25.2863 35.6128 24.9999 35.3264 24.9999 34.9743V31.831V29.7014V27.0847C24.9999 25.4319 25.6445 23.8789 26.8148 22.7117L27.8069 21.7225C27.9539 21.5759 28.0365 21.3768 28.0365 21.1693V16.5625H29.7013H31.0498V18.9323C31.0498 19.3638 31.3996 19.7136 31.831 19.7136C32.2624 19.7136 32.6123 19.3638 32.6123 18.9323V16.5625H34.218V21.1693C34.218 21.3768 34.3007 21.5759 34.4476 21.7225L35.9823 23.2529C36.8551 24.1232 37.4423 25.2221 37.6805 26.4311L38.424 30.2009C38.4595 30.3789 38.4224 30.5593 38.3198 30.7089Z" fill="black"/>
<path d="M32.3832 21.3187C32.2379 21.1734 32.0363 21.0898 31.8309 21.0898C31.6254 21.0898 31.4238 21.1734 31.2786 21.3187C31.1333 21.4641 31.0496 21.6655 31.0496 21.8719C31.0496 22.0773 31.1332 22.2789 31.2786 22.4242C31.4238 22.5695 31.6254 22.6523 31.8309 22.6523C32.0363 22.6523 32.2379 22.5695 32.3832 22.4242C32.5285 22.2781 32.6121 22.0773 32.6121 21.8719C32.6121 21.6664 32.5286 21.4648 32.3832 21.3187Z" fill="black"/>
<path d="M10.1721 17.872C10.0268 17.7259 9.82523 17.6431 9.61977 17.6431C9.4143 17.6431 9.21273 17.7259 9.06742 17.872C8.92219 18.0173 8.83852 18.2181 8.83852 18.4243C8.83852 18.6298 8.92211 18.8313 9.06742 18.9767C9.21273 19.122 9.4143 19.2056 9.61977 19.2056C9.82523 19.2056 10.0268 19.122 10.1721 18.9767C10.3173 18.8313 10.401 18.6298 10.401 18.4243C10.401 18.2181 10.3174 18.0173 10.1721 17.872Z" fill="black"/>
</g>
<defs>
<clipPath id="clip0">
<rect width="40" height="40" fill="white"/>
</clipPath>
</defs>
</svg>
