<svg width="40" height="40" viewBox="0 0 40 40" fill="none" xmlns="http://www.w3.org/2000/svg">
<g clip-path="url(#clip0)">
<path d="M36.0947 7.18763H32.8134V3.90623C32.8134 1.75234 31.061 0 28.9071 0H3.90721C1.75331 0 0.000976562 1.75234 0.000976562 3.90623V28.9061C0.000976562 31.06 1.75331 32.8124 3.90721 32.8124H7.18853V36.0938C7.18853 38.2477 8.94087 40 11.0948 40H36.0947C38.2486 40 40.0009 38.2477 40.0009 36.0938V11.0938C40.001 8.93989 38.2487 7.18763 36.0947 7.18763ZM3.90721 31.2499C2.61487 31.2499 1.56347 30.1986 1.56347 28.9061V3.90623C1.56347 2.6139 2.61487 1.56249 3.90721 1.56249H28.9071C30.1995 1.56249 31.2509 2.6139 31.2509 3.90623V28.9061C31.2509 30.1985 30.1995 31.2499 28.9071 31.2499H3.90721ZM38.4384 36.0938C38.4384 37.3861 37.387 38.4375 36.0947 38.4375H11.0948C9.80243 38.4375 8.75102 37.3861 8.75102 36.0938V32.8124H28.9071C31.061 32.8124 32.8134 31.06 32.8134 28.9061V8.75012H36.0947C37.387 8.75012 38.4384 9.80152 38.4384 11.0939V36.0938Z" fill="black"/>
<path d="M11.1133 35.7031H11.0922C10.6607 35.7031 10.3109 36.0529 10.3109 36.4844C10.3109 36.9159 10.6607 37.2656 11.0922 37.2656H11.1133C11.5447 37.2656 11.8945 36.9159 11.8945 36.4844C11.8945 36.0529 11.5448 35.7031 11.1133 35.7031Z" fill="black"/>
<path d="M36.0955 35.7031H13.3577C12.9262 35.7031 12.5765 36.0529 12.5765 36.4844C12.5765 36.9159 12.9262 37.2656 13.3577 37.2656H36.0954C36.5268 37.2656 36.8767 36.9159 36.8767 36.4844C36.8767 36.0529 36.5269 35.7031 36.0955 35.7031Z" fill="black"/>
<path d="M8.59647 2.73438H8.57538C8.14389 2.73438 7.79413 3.08414 7.79413 3.51562C7.79413 3.9471 8.14389 4.29687 8.57538 4.29687H8.59647C9.02795 4.29687 9.37772 3.9471 9.37772 3.51562C9.37772 3.08414 9.02803 2.73438 8.59647 2.73438Z" fill="black"/>
<path d="M6.33091 2.73438H3.90631C3.47483 2.73438 3.12506 3.08414 3.12506 3.51562C3.12506 3.9471 3.47483 4.29687 3.90631 4.29687H6.33083C6.76231 4.29687 7.11208 3.9471 7.11208 3.51562C7.11215 3.08414 6.76239 2.73438 6.33091 2.73438Z" fill="black"/>
<path d="M22.9284 15.7132C22.7427 15.0257 22.3005 14.4518 21.6845 14.0979L17.8628 11.8915C17.8244 11.8665 17.7858 11.8426 17.7469 11.8203L13.935 9.61936C13.4984 9.33147 12.9908 9.17944 12.4652 9.17944C10.991 9.17944 9.7915 10.3788 9.7915 11.8532V20.9634C9.7915 20.9952 9.79346 21.0266 9.79713 21.0574C9.81252 21.4933 9.93557 21.9214 10.1554 22.3011C10.6312 23.1227 11.517 23.633 12.4671 23.633C12.9348 23.633 13.3968 23.5086 13.8022 23.2738L17.7469 20.9962C17.7692 20.9832 17.7907 20.9694 17.8113 20.9546L21.6565 18.7348C22.0763 18.5003 22.4253 18.1553 22.6661 17.7364C23.0209 17.1191 23.114 16.4005 22.9284 15.7132ZM21.3116 16.9579C21.2113 17.1323 21.0662 17.2756 20.8922 17.3722C20.8883 17.3743 20.8844 17.3765 20.8806 17.3787L16.964 19.6398C16.9416 19.6527 16.9201 19.6666 16.8994 19.6814L13.0201 21.9212C12.8514 22.0188 12.6602 22.0706 12.4671 22.0706C12.0726 22.0706 11.7049 21.8589 11.5075 21.5181C11.4096 21.3491 11.358 21.1575 11.3581 20.9642C11.3581 20.9376 11.3568 20.9111 11.3541 20.8849V11.8532H11.3542C11.3542 11.2405 11.8527 10.7419 12.4654 10.7419C12.6881 10.7419 12.9025 10.8072 13.0854 10.9308C13.1006 10.941 13.1162 10.9508 13.132 10.96L16.9673 13.1743C16.9865 13.1854 17.0049 13.1972 17.0232 13.2093C17.0362 13.2178 17.0494 13.226 17.0628 13.2338L20.9047 15.4518C21.1602 15.5986 21.3432 15.8361 21.4201 16.1207C21.4968 16.4052 21.4583 16.7025 21.3116 16.9579Z" fill="black"/>
</g>
<defs>
<clipPath id="clip0">
<rect width="40" height="40" fill="white"/>
</clipPath>
</defs>
</svg>
